<?xml version="1.0" standalone="no"?>
<!DOCTYPE svg PUBLIC "-//W3C//DTD SVG 20010904//EN"
 "http://www.w3.org/TR/2001/REC-SVG-20010904/DTD/svg10.dtd">
<svg version="1.0" xmlns="http://www.w3.org/2000/svg"
 width="275.000000pt" height="275.000000pt" viewBox="0 0 275.000000 275.000000"
 preserveAspectRatio="xMidYMid meet">

<g transform="translate(0.000000,275.000000) scale(0.100000,-0.100000)"
fill="#000000" stroke="none">
<path d="M312 2726 c-119 -45 -223 -149 -274 -275 l-23 -56 -3 -1003 c-2 -887
-1 -1009 13 -1063 33 -126 119 -236 232 -297 l61 -32 1054 0 1055 0 63 31 c73
37 146 107 189 182 62 108 61 85 61 1157 0 920 -1 979 -19 1042 -37 135 -123
238 -249 300 l-67 33 -1015 2 -1015 2 -63 -23z m1298 -724 c52 -42 96 -76 98
-77 2 -2 -48 -81 -111 -176 -62 -96 -140 -214 -172 -264 -207 -319 -273 -413
-333 -473 -36 -37 -65 -71 -64 -75 1 -5 -2 -5 -8 -2 -6 4 -19 0 -28 -7 -33
-28 -107 -50 -170 -50 -55 0 -75 5 -150 42 -67 33 -104 61 -167 124 -89 88
-120 141 -137 235 -15 82 1 170 54 283 23 48 43 88 45 88 4 0 165 -98 210
-128 10 -6 5 -26 -17 -82 -36 -91 -37 -132 -6 -190 42 -81 123 -117 190 -85
48 23 115 115 391 540 126 193 235 358 243 367 17 21 13 23 132 -70z m318
-221 c63 -45 70 -55 52 -66 -23 -14 -6 -31 53 -54 132 -50 280 -177 333 -286
26 -54 29 -69 28 -160 0 -86 -4 -110 -29 -172 -50 -126 -42 -123 -170 -44 -60
38 -109 72 -108 77 1 5 14 38 29 73 30 74 29 136 -3 180 -30 39 -109 85 -149
85 -54 0 -121 -78 -291 -339 -83 -126 -195 -299 -250 -383 l-100 -154 -54 44
c-30 24 -65 51 -79 60 -14 10 -40 30 -58 46 l-34 28 168 254 c540 821 574 871
587 863 7 -4 41 -28 75 -52z"/>
</g>
</svg>
