<?xml version="1.0" standalone="no"?>
<!DOCTYPE svg PUBLIC "-//W3C//DTD SVG 20010904//EN"
 "http://www.w3.org/TR/2001/REC-SVG-20010904/DTD/svg10.dtd">
<svg version="1.0" xmlns="http://www.w3.org/2000/svg"
 width="842.000000pt" height="404.000000pt" viewBox="0 0 842.000000 404.000000"
 preserveAspectRatio="xMidYMid meet">

<g transform="translate(0.000000,404.000000) scale(0.100000,-0.100000)"
fill="#000000" stroke="none">
<path d="M750 3619 c-170 -28 -319 -169 -365 -346 -23 -87 -22 -1990 0 -2078
35 -132 123 -238 251 -302 l78 -38 570 -5 571 -5 314 -198 c172 -109 315 -196
317 -194 2 1 6 91 10 199 l7 196 127 4 c123 4 130 5 202 41 128 63 213 164
250 296 17 61 18 127 18 1046 0 849 -2 989 -15 1040 -47 178 -197 317 -375
345 -81 12 -1881 12 -1960 -1z m1220 -748 c52 -41 96 -75 98 -76 2 -2 -402
-622 -511 -784 -71 -105 -161 -192 -240 -231 -55 -27 -78 -32 -133 -32 -58 0
-77 5 -151 42 -227 116 -348 319 -299 508 18 70 85 224 96 220 4 -2 55 -32
113 -67 l105 -65 -20 -50 c-32 -81 -40 -117 -35 -159 8 -56 51 -115 100 -138
114 -51 132 -33 487 511 275 421 269 412 283 403 7 -4 55 -41 107 -82z m380
-272 c0 -4 -4 -11 -10 -14 -14 -9 -12 -35 3 -35 29 0 167 -75 230 -127 182
-147 231 -316 148 -515 -50 -120 -39 -118 -166 -39 -60 38 -109 73 -108 77 1
5 14 38 29 73 43 106 26 172 -65 236 -29 21 -54 30 -81 30 -66 0 -115 -60
-382 -470 -133 -203 -247 -378 -253 -387 -11 -16 -23 -9 -121 68 -60 47 -108
91 -106 98 2 6 90 141 195 301 105 159 269 408 364 553 l173 263 75 -52 c41
-29 75 -56 75 -60z"/>
<path d="M7027 3423 c-4 -58 -7 -185 -7 -282 0 -97 -3 -185 -6 -197 -5 -20 -9
-19 -83 26 -422 253 -989 76 -1202 -375 -60 -129 -73 -190 -74 -355 0 -170 17
-245 90 -397 35 -71 63 -110 127 -178 132 -140 248 -212 413 -256 96 -26 296
-31 390 -10 83 18 200 64 269 106 32 19 60 35 62 35 2 0 4 -35 6 -77 l3 -78
166 -3 166 -2 7 1065 c4 585 5 1069 1 1075 -4 6 -68 10 -164 10 l-158 0 -6
-107z m-426 -687 c177 -38 338 -182 391 -350 16 -49 19 -83 16 -171 -3 -103
-6 -115 -41 -188 -101 -213 -314 -332 -535 -299 -152 24 -313 135 -384 268
-133 248 -26 570 233 698 113 56 200 67 320 42z"/>
<path d="M3352 3493 c-112 -73 -105 -239 12 -300 77 -40 196 0 236 77 35 69
24 133 -35 197 -40 45 -44 47 -106 51 -57 3 -69 0 -107 -25z"/>
<path d="M7805 3506 c-42 -18 -93 -79 -100 -120 -14 -71 21 -149 81 -187 77
-47 201 -11 246 71 41 74 1 197 -75 233 -42 20 -110 21 -152 3z"/>
<path d="M3458 3042 l-168 -65 0 -889 c0 -978 0 -976 -61 -1105 -37 -77 -121
-170 -186 -206 -61 -33 -152 -57 -215 -57 l-48 0 0 -195 0 -195 58 6 c291 33
561 223 694 489 38 75 66 165 83 263 13 74 15 230 13 1053 l-3 965 -167 -64z"/>
<path d="M7710 2255 l0 -855 168 2 167 3 3 853 2 852 -170 0 -170 0 0 -855z"/>
<path d="M4565 3083 c-200 -25 -359 -98 -494 -227 -120 -116 -195 -235 -243
-386 -20 -65 -23 -95 -23 -230 0 -181 12 -238 79 -375 115 -234 303 -389 551
-456 112 -30 317 -31 427 -1 191 52 320 140 481 330 l109 127 -216 3 -215 2
-74 -50 c-109 -74 -170 -93 -297 -93 -118 -1 -183 18 -276 80 -86 56 -176 166
-199 241 l-6 22 659 0 659 0 7 38 c3 20 6 82 6 137 0 167 -51 329 -147 471
-55 81 -185 203 -272 254 -150 89 -352 134 -516 113z m187 -347 c36 -8 92 -27
124 -42 76 -36 189 -149 227 -226 15 -31 27 -59 27 -62 0 -3 -216 -6 -480 -6
-264 0 -480 3 -480 6 0 22 58 119 99 165 130 146 299 203 483 165z"/>
<path d="M4048 1078 l-3 -133 -67 -3 c-60 -3 -68 -5 -68 -22 0 -18 7 -20 61
-20 59 0 96 11 111 34 4 6 8 71 8 144 0 125 -1 132 -20 132 -18 0 -20 -8 -22
-132z"/>
<path d="M4830 1195 c0 -8 9 -15 20 -15 11 0 20 7 20 15 0 8 -9 15 -20 15 -11
0 -20 -7 -20 -15z"/>
<path d="M4140 1045 c0 -143 2 -145 150 -145 148 0 150 2 150 145 0 98 -1 105
-20 105 -18 0 -20 -8 -22 -102 l-3 -103 -105 0 -105 0 -3 103 c-2 94 -4 102
-22 102 -19 0 -20 -7 -20 -105z"/>
<path d="M4490 1025 c0 -118 1 -125 20 -125 18 0 20 8 22 108 l3 107 100 0
100 0 3 -107 c2 -100 4 -108 22 -108 19 0 20 7 20 115 0 103 -2 115 -19 125
-11 5 -76 10 -145 10 l-126 0 0 -125z"/>
<path d="M4830 1025 c0 -118 1 -125 20 -125 19 0 20 7 20 125 0 118 -1 125
-20 125 -19 0 -20 -7 -20 -125z"/>
<path d="M4958 1139 c-15 -8 -18 -26 -18 -114 0 -93 2 -105 19 -115 11 -5 69
-10 129 -10 140 0 142 2 142 127 0 121 -2 123 -146 123 -60 0 -117 -5 -126
-11z m230 -111 l3 -88 -106 0 -105 0 0 83 c0 46 3 87 7 91 4 4 50 5 103 4 l95
-3 3 -87z"/>
<path d="M5292 1138 c-8 -8 -12 -50 -12 -125 0 -106 1 -113 20 -113 18 0 20 8
22 108 l3 107 88 3 c68 2 87 6 87 17 0 12 -19 15 -98 15 -63 0 -102 -4 -110
-12z"/>
<path d="M5676 1128 c-11 -16 -16 -46 -16 -105 0 -120 4 -123 171 -123 119 0
130 2 127 18 -3 15 -19 18 -128 22 l-125 5 -3 33 -3 32 130 0 131 0 0 48 c0
27 -7 57 -16 70 -14 21 -23 22 -134 22 -111 0 -120 -1 -134 -22z m232 -51 l3
-38 -103 3 c-99 3 -103 4 -106 26 -7 44 13 53 112 50 l91 -3 3 -38z"/>
<path d="M6010 1025 c0 -118 1 -125 20 -125 18 0 20 8 22 108 l3 107 75 0 75
0 3 -107 c2 -99 4 -108 22 -108 18 0 20 9 22 108 l3 107 75 0 75 0 3 -107 c2
-100 4 -108 22 -108 19 0 20 7 20 108 0 150 14 142 -238 142 l-202 0 0 -125z"/>
<path d="M6490 975 c0 -168 1 -175 20 -175 17 0 20 7 20 50 l0 50 108 0 c143
0 146 2 151 114 2 67 -1 92 -13 111 -16 25 -19 25 -151 25 l-135 0 0 -175z
m249 131 c7 -9 11 -42 9 -88 l-3 -73 -105 0 -105 0 -3 74 c-2 41 -1 80 2 88 8
19 189 19 205 -1z"/>
<path d="M6837 1132 c-14 -15 -17 -40 -17 -125 0 -100 1 -107 20 -107 18 0 20
8 22 108 l3 107 88 3 c68 2 87 6 87 17 0 12 -18 15 -93 15 -78 0 -97 -3 -110
-18z"/>
<path d="M7086 1128 c-11 -16 -16 -46 -16 -105 0 -120 4 -123 171 -123 119 0
130 2 127 18 -3 15 -19 18 -128 22 l-125 5 -3 33 -3 32 130 0 131 0 0 48 c0
27 -7 57 -16 70 -14 21 -23 22 -134 22 -111 0 -120 -1 -134 -22z m234 -22 c6
-8 10 -25 8 -38 -3 -22 -6 -23 -108 -23 -102 0 -105 1 -108 23 -6 43 13 52
108 52 64 0 91 -4 100 -14z"/>
<path d="M7432 1138 c-16 -16 -16 -105 1 -115 6 -4 62 -10 122 -13 l110 -5 0
-30 0 -30 -99 -3 c-59 -2 -103 1 -110 8 -16 16 -36 12 -36 -10 0 -31 32 -40
142 -40 125 0 148 11 148 69 0 60 -19 70 -140 73 l-105 3 0 35 0 35 94 3 c56
2 98 -1 105 -8 12 -12 46 -13 46 -2 0 5 -8 16 -18 25 -15 14 -41 17 -133 17
-76 0 -119 -4 -127 -12z"/>
<path d="M7760 1135 c0 -12 23 -15 123 -17 l122 -3 3 -37 3 -38 -125 0 -126 0
0 -54 c0 -82 7 -86 161 -86 l129 0 0 109 c0 145 5 141 -161 141 -107 0 -129
-3 -129 -15z m250 -160 l0 -35 -105 0 -105 0 0 35 0 35 105 0 105 0 0 -35z"/>
</g>
</svg>
